<svg xmlns="http://www.w3.org/2000/svg">
<symbol id="adminSvgImage" viewBox="0 0 50 50">
  <defs>
    <clipPath id="__lottie_element_2">
      <rect width="50" height="50" x="0" y="0"></rect>
    </clipPath>
  </defs>
  <g clip-path="url(#__lottie_element_2)">
    <g transform="matrix(1,0,0,1,0,0)" opacity="1" style="display: block;">
      <g opacity="1" transform="matrix(1,0,0,1,25,35.75)">
        <path stroke-linecap="round" stroke-linejoin="miter" fill-opacity="0" stroke-miterlimit="10" stroke="rgb(0,0,0)" stroke-opacity="1" stroke-width="2" d=" M-5,-9.25 C-5,-9.25 -5,-4.25 -5,-4.25 C-5,-0.75 -19,-0.6499999761581421 -19,9.25 C-19,9.25 19,9.25 19,9.25 C19,-0.75 5,-0.6499999761581421 5,-4.25 C5,-4.25 5,-9.25 5,-9.25"></path>
      </g>
    </g>
    <g transform="matrix(1,0,0,1,0,0)" opacity="1" style="display: block;">
      <g opacity="1" transform="matrix(1,0,0,1,25,15.25)">
        <path stroke-linecap="round" stroke-linejoin="miter" fill-opacity="0" stroke-miterlimit="10" stroke="rgb(0,0,0)" stroke-opacity="1" stroke-width="2" d=" M5,11.25 C7.400000095367432,9.649999618530273 9,6.849999904632568 9,3.75 C9,3.75 9,-2.25 9,-2.25 C9,-7.25 5,-11.25 0,-11.25 C-5,-11.25 -9,-7.25 -9,-2.25 C-9,-2.25 -9,3.75 -9,3.75 C-9,6.849999904632568 -7.400000095367432,9.649999618530273 -5,11.25"></path>
      </g>
    </g>
    <g transform="matrix(1,0,0,1,0,0)" id="adminEyes" opacity="1" style="display: block;">
      <g opacity="1" transform="matrix(1,0,0,1,21.5,15.508000373840332)">
        <path fill="rgb(0,0,0)" fill-opacity="1" d=" M0,1.5080000162124634 C-0.8289999961853027,1.5080000162124634 -1.5,0.8519999980926514 -1.5,0.023000000044703484 C-1.5,0.023000000044703484 -1.5,-0.00800000037997961 -1.5,-0.00800000037997961 C-1.5,-0.8360000252723694 -0.8289999961853027,-1.5080000162124634 0,-1.5080000162124634 C0.8289999961853027,-1.5080000162124634 1.5,-0.8360000252723694 1.5,-0.00800000037997961 C1.5,0.8209999799728394 0.8289999961853027,1.5080000162124634 0,1.5080000162124634z"></path>
      </g>
      <g opacity="1" transform="matrix(1,0,0,1,28.5,15.508000373840332)">
        <path fill="rgb(0,0,0)" fill-opacity="1" d=" M0,1.5080000162124634 C-0.828000009059906,1.5080000162124634 -1.5,0.8519999980926514 -1.5,0.023000000044703484 C-1.5,0.023000000044703484 -1.5,-0.00800000037997961 -1.5,-0.00800000037997961 C-1.5,-0.8360000252723694 -0.828000009059906,-1.5080000162124634 0,-1.5080000162124634 C0.828000009059906,-1.5080000162124634 1.5,-0.8360000252723694 1.5,-0.00800000037997961 C1.5,0.8209999799728394 0.828000009059906,1.5080000162124634 0,1.5080000162124634z"></path>
      </g>
    </g>
  </g>
  </symbol>
</svg>
