<svg xmlns="http://www.w3.org/2000/svg" viewBox="0 0 48 48" width="48" height="48" preserveAspectRatio="xMidYMid meet" style="width: 100%; height: 100%;">
  <defs>
    <clipPath id="__lottie_element_2">
      <rect width="48" height="48" x="0" y="0"></rect>
    </clipPath>
  </defs>
  <g clip-path="url(#__lottie_element_2)">
    <g transform="matrix(0.838670551776886,-0.5446390509605408,0.5446390509605408,0.838670551776886,-0.9749984741210938,24.566465377807617)" opacity="1" style="display: block;">
      <g opacity="1" transform="matrix(1,0,0,1,32,13.928999900817871)">
        <path fill="rgb(245,123,0)" fill-opacity="1" d=" M0,-8.979999542236328 C0,-8.979999542236328 8.979999542236328,0 8.979999542236328,0 C8.979999542236328,0 -6.5,1.6050000190734863 -6.5,1.6050000190734863 C-6.5,1.6050000190734863 -8.979999542236328,0 -8.979999542236328,0 C-8.979999542236328,0 0,-8.979999542236328 0,-8.979999542236328z"></path>
      </g>
    </g>
    <g transform="matrix(0.7071067690849304,-0.7071067690849304,0.7071067690849304,0.7071067690849304,1.2216129302978516,26.807235717773438)" opacity="1" style="display: block;">
      <g opacity="1" transform="matrix(1,0,0,1,23,11.928999900817871)">
        <path fill="rgb(255,151,0)" fill-opacity="1" d=" M0,-9.970000267028809 C0,-9.970000267028809 9.970000267028809,0.0010000000474974513 9.970000267028809,0.0010000000474974513 C9.970000267028809,0.0010000000474974513 0,9.970000267028809 0,9.970000267028809 C0,9.970000267028809 -9.970000267028809,0 -9.970000267028809,0 C-9.970000267028809,0 0,-9.970000267028809 0,-9.970000267028809z"></path>
      </g>
    </g>
    <g transform="matrix(1,0,0,1,0,0)" opacity="1" style="display: block;">
      <g opacity="1" transform="matrix(1,0,0,1,24.5,28)">
        <path fill="rgb(0,149,135)" fill-opacity="1" d=" M-6.5,4 C-7.599999904632568,4 -8.5,3.0999999046325684 -8.5,2 C-8.5,2 -8.5,-8 -8.5,-8 C-8.5,-8 -12.5,-8 -12.5,-8 C-12.5,-8 -12.5,2 -12.5,2 C-12.5,5.300000190734863 -9.800000190734863,8 -6.5,8 C-6.5,8 12.5,8 12.5,8 C12.5,8 12.5,4 12.5,4 C12.5,4 -6.5,4 -6.5,4z"></path>
      </g>
      <g opacity="1" transform="matrix(1,0,0,1,24.700000762939453,17)">
        <path fill="rgb(0,149,135)" fill-opacity="1" d=" M-11.899999618530273,-7 C-11.899999618530273,-7 -12.300999641418457,-8.300000190734863 -12.300999641418457,-8.300000190734863 C-12.901000022888184,-9.899999618530273 -14.399999618530273,-11 -16.100000381469727,-11 C-16.100000381469727,-11 -19.701000213623047,-11 -19.701000213623047,-11 C-19.701000213623047,-11 -19.701000213623047,-7 -19.701000213623047,-7 C-19.701000213623047,-7 -16.100000381469727,-7 -16.100000381469727,-7 C-16.100000381469727,-7 -10.600000381469727,9.600000381469727 -10.600000381469727,9.600000381469727 C-10.300000190734863,10.399999618530273 -9.60099983215332,11 -8.701000213623047,11 C-8.701000213623047,11 10.298999786376953,11 10.298999786376953,11 C11.098999977111816,11 11.800000190734863,10.5 12.100000381469727,9.800000190734863 C12.100000381469727,9.800000190734863 19.701000213623047,-7 19.701000213623047,-7 C19.701000213623047,-7 -11.899999618530273,-7 -11.899999618530273,-7z"></path>
      </g>
      <g opacity="1" transform="matrix(1,0,0,1,5,8)">
        <path fill="rgb(0,105,92)" fill-opacity="1" d=" M0,-2 C-1.1039999723434448,-2 -2,-1.1039999723434448 -2,0 C-2,1.1039999723434448 -1.1039999723434448,2 0,2 C1.1039999723434448,2 2,1.1039999723434448 2,0 C2,-1.1039999723434448 1.1039999723434448,-2 0,-2z"></path>
      </g>
      <g opacity="1" transform="matrix(1,0,0,1,34,39)">
        <path fill="rgb(55,70,79)" fill-opacity="1" d=" M0,-3 C-1.656999945640564,-3 -3,-1.656999945640564 -3,0 C-3,1.656999945640564 -1.656999945640564,3 0,3 C1.656999945640564,3 3,1.656999945640564 3,0 C3,-1.656999945640564 1.656999945640564,-3 0,-3z"></path>
      </g>
      <g opacity="1" transform="matrix(1,0,0,1,19,39)">
        <path fill="rgb(55,70,79)" fill-opacity="1" d=" M0,-3 C-1.656999945640564,-3 -3,-1.656999945640564 -3,0 C-3,1.656999945640564 -1.656999945640564,3 0,3 C1.656999945640564,3 3,1.656999945640564 3,0 C3,-1.656999945640564 1.656999945640564,-3 0,-3z"></path>
      </g>
      <g opacity="1" transform="matrix(1,0,0,1,34,39)">
        <path fill="rgb(95,124,138)" fill-opacity="1" d=" M0,-1 C-0.5529999732971191,-1 -1,-0.5529999732971191 -1,0 C-1,0.5529999732971191 -0.5529999732971191,1 0,1 C0.5529999732971191,1 1,0.5529999732971191 1,0 C1,-0.5529999732971191 0.5529999732971191,-1 0,-1z"></path>
      </g>
      <g opacity="1" transform="matrix(1,0,0,1,19,39)">
        <path fill="rgb(95,124,138)" fill-opacity="1" d=" M0,-1 C-0.5519999861717224,-1 -1,-0.5529999732971191 -1,0 C-1,0.5529999732971191 -0.5519999861717224,1 0,1 C0.5519999861717224,1 1,0.5529999732971191 1,0 C1,-0.5529999732971191 0.5519999861717224,-1 0,-1z"></path>
      </g>
    </g>
  </g>
</svg>