<svg xmlns="http://www.w3.org/2000/svg" class="icon icon--site-logo" viewBox="0 0 400 282">
  <path d="m400 63-3-3-4 2-1-2a4 4 0 0 1-2 1h-1l-1 1-1-1h-4a9 9 0 0 0-3 1l-1 1h-2l-2 1-1 1-1 5 1 3-2 2c1 3-2 7-3 10l-1 2v2c-1 2-1 5-3 7l-4 3 1 2a22 22 0 0 1-1 5l-2 1 1 2-1 1a4 4 0 0 1-1-1c-1 2-1 5-3 7-2-1-1-3-2-4a8 8 0 0 0-1-2l1-3-1-6 2-6-2-2a6 6 0 0 0 2-5c0-3-2-2-2-6l1-2-1-1v-3l2-5v-7l-3-6-4-1-1-1-4 2h-3l-5 2a7 7 0 0 1 0 2l-1 1a18 18 0 0 1-1 3 49 49 0 0 1-4 6s0 4-2 4a4 4 0 0 0 0 1c-3 1-4 5-6 8h-5l-6-2-2 1c-4-3-10-1-13-3a14 14 0 0 0 0-4 5 5 0 0 0 4-2c3-3 7-6 7-10l2-1c0-1 2-3 4-3l1-1 7-6 2-3c0-2-1-3-3-4l-1 1-3-1-1 1-3-2a9 9 0 0 1-3 2c-1 3-4 2-6 3-2-1-4 2-5 4a25 25 0 0 1-6 5l-3 2-2 3-4 1a17 17 0 0 0-5 5c0 1-2 5-4 4l-2 2c1 2-3 4-5 3l-3 2c-1 3-2 5-5 6l-1 3 3 3a12 12 0 0 1 4 0l3 1c-2 2-3 4-5 4l-8-1h-4l-6-1-7-2v-1a14 14 0 0 0 3-2 15 15 0 0 1 2-3l1-1 8-6c1-2 2-6 5-6l2-1a10 10 0 0 1 2-3c1 0 3 0 3-2l-2-2a8 8 0 0 0-2-1l-7-2-4 3-2-1c-2 0-3 3-5 4a94 94 0 0 1-6 8h-1l-7 7-1 2-4 2c0 1-6 9-8 9a1 1 0 0 1-1-1l-1-3 1-4-1-6 2-3-1-1a57 57 0 0 1-1-8l1-4c0-2-1-3-3-5h-1a4 4 0 0 0-3-2l-1 1a51 51 0 0 1-7 3 19 19 0 0 1-2 4l-3 1-2 4-1 3-1 2a42 42 0 0 0-4 5s1 4-1 4c-1 4-5 6-5 7v2a9 9 0 0 0-1 1l-3 3v-1l1-4 1-4-1-1 2-5-1-4c0-1 0-2 2-2a19 19 0 0 0 1-3 54 54 0 0 0 2-8l-1-1 2-4v-4l2-7-4-4a5 5 0 0 0-2 0l-2 1h-2l-2 2h-1l-3 1a6 6 0 0 1-1 3h-2c-2 2-3 5-4 9h-1l-1-1a41 41 0 0 0-4 5l-1 3-3 3-2 5-2 2a10 10 0 0 0-1 2 5 5 0 0 1-2 1 26 26 0 0 1-5 6v-1l1-3c0-2 0-5 2-7a4 4 0 0 1 0-2l5-15a49 49 0 0 1 2-7 34 34 0 0 0 2-8c0-4 3-7 3-9l2-1 4 1 4-1a42 42 0 0 1 5-1l7 1 3-1 3 2 2-1h2a8 8 0 0 1 5-2l3 2 2-1 4 1 2-1 2 1 5-2a7 7 0 0 0 3 0 4 4 0 0 0 2 1l3-2 1 1a10 10 0 0 1 4 1h3a4 4 0 0 1 2 0 39 39 0 0 1 5 1 15 15 0 0 1 4 0l3-2 3 2 2-1 3 1c3 0 1-2 3-2v1a2 2 0 0 1 0 1l3-2a8 8 0 0 1 3 0l2 1 6-1a3 3 0 0 0 3 1h6l2-2 2 1a4 4 0 0 1 3 0l1 1h4l3 1 2-1 1 1h5l1 1h4c1-2 0-3 2-3a10 10 0 0 1 4 1l2 1 2-1 3 1 3-2h10a4 4 0 0 1 2 0h2a7 7 0 0 0 3 2l4-4a9 9 0 0 0-2-4l-5-2-2 2-15 1-1 1h-1a6 6 0 0 0-1-1h-4l-5-1c-2 2-6 1-6 5l-1-1v-2h-15a11 11 0 0 1-3 0l-5-2c-2 0-4 3-5 3l-5-2-4 1-2-1-4 1-1-1-3 1-2-1h-2l-4-2c-2 0-1 3-3 3l-2-1h-6a2 2 0 0 1-2 1 51 51 0 0 0-5-1 2 2 0 0 0-1 1 9 9 0 0 0-4-2l-7 2-3-1-1 1a30 30 0 0 0-3 0h-9l-4-1-6 2-2-1-3 1h-4a9 9 0 0 1-2 0l-3-1-3 1-2-1h-1l-4 1c-1 0-3 0-5-2l2-2a14 14 0 0 0 2-3 23 23 0 0 0 1-4l3-7c1-2 2-5 4-6l2-3V6a6 6 0 0 1-2-2l-1-2a4 4 0 0 0-2-2l-1 1h-6c-1 0 0 0 0 0l-1-1h-1l-2 2a2 2 0 0 0-2 0c-4 0-5 8-7 12l-2 2a8 8 0 0 0-1 3l-2 2-3 2c-1 4-4 11-8 11l-4-2a16 16 0 0 0-3 1l-4 1-2-1h-8l-3-1-9 2-5-2-4 1h-3l-6 1c-4 0-3-2-5-2h-2a33 33 0 0 0-4 0 16 16 0 0 1-2 1l-3-2c-2 0-5 1-5 3a3 3 0 0 0 0 1l4 3a37 37 0 0 0 7 2l2-3 4 3 4-2 4 2 2-1a41 41 0 0 0 4 1l2-1h3l1-1 1 1h2l3 1 7-2 5 2a25 25 0 0 0 3-1l1-1h4l2 1 4-1 1 1a16 16 0 0 0-3 5h-2a3 3 0 0 1-1 2 8 8 0 0 1 0 2 31 31 0 0 1-2 5l-4 3-1 3a25 25 0 0 1-2 4c-2-1-4 4-4 5-1 1-3 1-3 3a25 25 0 0 1-2 4 2 2 0 0 1-1 1c-1 2-1 3-3 3-1 2-1 5-3 4-1 4-6 8-5 11l-4 4a66 66 0 0 1-4 7h-5l-2-1h-2l-4-1h-3c-12 0-5 1-8 1l-2-2h-6l-3-2-1 1-5-1 1-1c3 0 5-3 8-5h2a40 40 0 0 1 7-2 39 39 0 0 1 14-7l2-2c1-2 6-5 7-5l3 1 2-3a8 8 0 0 0 3-1l1-3c0-3-2-2-3-6l-4-1-4 2h-4l-1-1-3 2h-1l-7 6-4 1c-2 1-3 4-5 4h-2l-2 2-5 3a6 6 0 0 0-3 1v1l-9 3-6 3a15 15 0 0 1-6 3l-6 2-1-1-3 3a43 43 0 0 1-6 3H3l-3 5a12 12 0 0 0 0 3l3 3h3a15 15 0 0 1 2 0h4l12 2 3 1 4-1 6 1a13 13 0 0 0 1 0l2 1 3-2 10 2 4-1 7 1h5l2 2a10 10 0 0 1 3 1l-2 3-2 2a12 12 0 0 0 0 2c0 1-5 5-5 7l1 2-4 6c0 3-2 5-3 7a3 3 0 0 0-2 1 7 7 0 0 1-1 5l-2 4v2a80 80 0 0 0-4 8v5a29 29 0 0 0-3 12l-1 4 1 1 7 3h1l1-2c3 1 3-2 6-2l2 1 7-2 6-2 8-4a10 10 0 0 1 4-1h4l4-4c6-1 12-6 19-9l5-1 12-6 3-4h2l13-10a8 8 0 0 0 1 3l8 3 4-2c4-1 11-8 10-12l1-2a4 4 0 0 0 0-1l3-4a26 26 0 0 0 1-3l-1-1c1-2 5-1 5-4l-1-3 2-5 1-1c1-2 0-4 3-5 0-2 1-6 3-6h1a18 18 0 0 0 0 3v7l1 1 1 3-1 2v6a13 13 0 0 1 1 3l-1 4 2 4v1a2 2 0 0 1-1-1l-1 3 1 7a3 3 0 0 0 1 1s1-1 2 1c-2 1-2 2-2 4l1 7v4l1 5a3 3 0 0 0 1 2 6 6 0 0 0 2 0h2l5-1a2 2 0 0 1 0-1l3-2 1-2h2l2-2a12 12 0 0 0 3-1v-3l-2-2-1-9c-2 0-2-1-2-2a18 18 0 0 1 0-3l1-3-1-7-1-5a7 7 0 0 0-1-1l1-3v-4l1-3-1-1-1-4v-4s0 1 0 0v-1h6l6 2h6a15 15 0 0 1 4 1l3 1h3l2 1 4-1 1 1h4a9 9 0 0 1 3 1l-3 1-4 4a2 2 0 0 0 0 2v1l-2 3v1a5 5 0 0 1-1 1c-1 1-2 4-4 4v1s-2 1-2 3l-1 6a8 8 0 0 0 0 2c1 1 2 3 4 3h8l4 1 2-1 3-1 2-2 5 1c2-1 3-3 5-3l4-2 2-1h3l10-5 4-2 3-3 4-1c1-1 5-6 7-6l1 1c-1 3-4 9-4 14v3s0 4 3 4l1-1a27 27 0 0 1 4 0h4c4 0 3-2 8-2 2-3 5-2 7-3 2-2 2-3 4-3a3 3 0 0 1 1 1l1 3v13a2 2 0 0 0 2-1v2a2 2 0 0 0 0 1l-1 5a3 3 0 0 0 1 2v1l-1 2 1 6c0 1-1 4 1 4h2l7 1 5-2a1 1 0 0 0-1 0v-1h1l1 1 3-1a14 14 0 0 1 2 0 13 13 0 0 0 2-6l1-3-1-1 2-6a17 17 0 0 0 0-3l2-2a8 8 0 0 0 1-3l-1-1a10 10 0 0 0 2-3l1-2 1-2-1-1v-2a4 4 0 0 0 2-1l1-3 4-11v-3h1a65 65 0 0 1 0 10 3 3 0 0 0 1 1l-1 3a11 11 0 0 0-1 4 65 65 0 0 1 0 7l1 2v1l-1-1-1 2 2 3-1 1 1 3-1 1 1 3-1 1a38 38 0 0 0 1 8 8 8 0 0 1-1 2l-2 2 4 4-3 2a18 18 0 0 1 0 3 6 6 0 0 1 2 1l-2 3 1 5h1c0 4-3 5-3 8l1 3c0 3-2 1-2 3a6 6 0 0 0 0 2v4l-1 5 2 3a13 13 0 0 1-1 3l-2 3 2 4v5a39 39 0 0 1-2 6l1 1 1 8-2 1a6 6 0 0 0 0 3l1 8 1 1a1 1 0 0 0-1 1l1 3-2 6 1 1a12 12 0 0 1 3 0 8 8 0 0 1 0 1h-3a60 60 0 0 1-1 6c2 1 4 4 6 4l5-1 2-1h6l2-2a18 18 0 0 0 4-1 29 29 0 0 0 1-4l-3-5 1-2-1-1 2-3-1-4v-3l-3-5 3-7-1-1 1-4c0-2-1-2-3-4l1-1 1 1h1v-3l-1-4 2-4v-2c1 0 0 0 0 0l-1-1 1-1v-1a5 5 0 0 1-2-2 12 12 0 0 1-2-4 23 23 0 0 1 2-4h2l1-4-1-4v-10l-2-1v-2l1-1a3 3 0 0 1 0-1l1-2a12 12 0 0 0 1-4l-3-6 3-2v-3a8 8 0 0 0-3-5h-2c2-5 4-3 4-7v-3l4-7-1-2-2-4-1-1-1-3s4 0 4-2v-4l-2-5 1-2v-2a1 1 0 0 1-1-1l2-1v-3l-1-3a13 13 0 0 0 0-3l-1-2 2-2-1-3v-8l-2-1c0-2 1-1 3-3v-6l-2-2 2-2v-7a15 15 0 0 1-1-4 12 12 0 0 1 0-3c1-2 3-2 3-4Zm-299 43 1-2 1-1c2-5 4-5 4-8l1-2s2 0 3-2l2-4 1-2c2-2 5-6 4-8 4-1 2-5 4-6l2-1 1-4 2-1c2-1 3-4 4-6a2 2 0 0 1 1 2 18 18 0 0 1-1 5l-1 2c-2 7-1 4-1 9l-3 4v3l-2 3a10 10 0 0 0-1 5l1 1-2 3 1 1c-1 2-2 1-2 1a11 11 0 0 0-2 3l1 2-3 6-7-1a12 12 0 0 0-4 0 1 1 0 0 0-2-1l-1 1-2-1-2 1 2-2Zm52 26-5 5-4 1-1 3a6 6 0 0 1-2 2l-6 2-7 4-2 4a5 5 0 0 0-2 0l-2 1a39 39 0 0 1-5 3l-4 2-9 4-6 2-9 6-6 1-1 1c-1 0-3 0-3 2a48 48 0 0 1-5 1l-4 2a9 9 0 0 1-2-1s0 0 0 1v-3l4-11 3-8 1-4 6-10v-3c1-2 3-2 2-4 3-2 4-3 4-5s3-4 2-7a11 11 0 0 0 2-3l5-1 2 1h6l1-1 2 1 5 1 1-1 2 2-2 3 1 3-2 2 1 1c0 1-1-1-1 3h-2l-1 4a11 11 0 0 1-1 3v1c0 2-3 3-4 5 2 2 0 4 3 6h7a21 21 0 0 1 3-4l2-1c6-4 10-10 11-16 0-3 3-5 4-7l2-1 6 1a16 16 0 0 1 2 0l2 1a13 13 0 0 0 3 0c1 2 3 1 3 4a15 15 0 0 1 0 2Zm4-31-2 2a51 51 0 0 0-1 6l1 3a5 5 0 0 1-1 2h-2a8 8 0 0 0-2-2l-1 1a35 35 0 0 0-4-2 2 2 0 0 1-1-1l5-6 2-7 5-4a25 25 0 0 1 1 5 24 24 0 0 1 0 3Zm125 21-2 2-10 5a48 48 0 0 1-9 2h-3v-1l1-2 3-6a9 9 0 0 0 3-5 5 5 0 0 1 1-2h4l10 3 1-1 2 1c1 0 3-1 5 1-1 2-5 3-6 3Zm31-16a14 14 0 0 1-2-1l-2 5a1 1 0 0 0-1 1c-5-5-10-6-16-6l-2-1a43 43 0 0 0-6-1h-4c-2 0-3-1-3-2l1-3c3-1 3-3 6-3l5 1a25 25 0 0 0 6 0h8l5 1a12 12 0 0 0 5 0l1 2c0 2-2 2-1 7Zm22 16a2 2 0 0 1-1 2c-3 0-7 3-8 3l-1-1v-1l1-5 1-1v-4l1-1a21 21 0 0 0 0-2 9 9 0 0 1 2-5 20 20 0 0 1 2-4h1l2 4-1 1 1 2-2 6 1 6ZM186 18c2 0 3 3 3 4a10 10 0 0 1-1 4 4 4 0 0 1-3 2l-1-1h-2l-2-2 1-1a14 14 0 0 0 0-2c0-3 3-4 5-4Zm20-1a11 11 0 0 1 2 1l3 5a8 8 0 0 1 0 2l-3 2-2-1-1 1a4 4 0 0 1-3-2 6 6 0 0 1-1-3 3 3 0 0 1 1-2 21 21 0 0 0 2-2 2 2 0 0 1 2-1Z"/>
</svg>
