      <svg
        xmlns="http://www.w3.org/2000/svg"
        xmlns:xlink="http://www.w3.org/1999/xlink"
        viewBox="0,0,256,256"
        width="35px"
        height="35px"
        fill-rule="nonzero">
        <g
          fill="#ffffff"
          fill-rule="nonzero"
          stroke="none"
          stroke-width="1"
          stroke-linecap="butt"
          stroke-linejoin="miter"
          stroke-miterlimit="10"
          stroke-dasharray=""
          stroke-dashoffset="0"
          font-family="none"
          font-weight="none"
          font-size="none"
          text-anchor="none"
          style="mix-blend-mode: normal">
          <g transform="scale(5.33333,5.33333)">
            <path
              d="M11.5,6c-3.01977,0 -5.5,2.48023 -5.5,5.5v25c0,3.01977 2.48023,5.5 5.5,5.5h25c3.01977,0 5.5,-2.48023 5.5,-5.5v-25c0,-3.01977 -2.48023,-5.5 -5.5,-5.5zM11.5,9h25c1.39823,0 2.5,1.10177 2.5,2.5v25c0,1.39823 -1.10177,2.5 -2.5,2.5h-6.5v-10h3.625c0.504,0 0.93019,-0.37695 0.99219,-0.87695l0.375,-3c0.036,-0.284 -0.05414,-0.56916 -0.24414,-0.78516c-0.189,-0.215 -0.46105,-0.33789 -0.74805,-0.33789h-4v-3.5c0,-1.103 0.897,-2 2,-2h2c0.552,0 1,-0.447 1,-1v-3.375c0,-0.518 -0.39516,-0.95009 -0.91016,-0.99609c-0.059,-0.005 -1.46986,-0.12891 -3.25586,-0.12891c-4.407,0 -6.83398,2.61619 -6.83398,7.36719v3.63281h-4c-0.552,0 -1,0.447 -1,1v3c0,0.553 0.448,1 1,1h4v10h-12.5c-1.39823,0 -2.5,-1.10177 -2.5,-2.5v-25c0,-1.39823 1.10177,-2.5 2.5,-2.5z"></path>
          </g>
        </g>
      </svg>