<svg xmlns="http://www.w3.org/2000/svg"  viewBox="0 0 64 64" width="64px" height="64px" fill-rule="evenodd" clip-rule="evenodd" baseProfile="basic"><linearGradient id="TT_oSGBtodl9JkyYGlmjYa" x1="12.435" x2="12.435" y1="19.37" y2="43.43" gradientUnits="userSpaceOnUse"><stop offset="0" stop-color="#6dc7ff"/><stop offset="1" stop-color="#e6abff"/></linearGradient><path fill="url(#TT_oSGBtodl9JkyYGlmjYa)" fill-rule="evenodd" d="M13.94,43.43c1.49,0,2.78-0.86,3.4-2.11	c0-0.01,0.01-0.01,0.02-0.01c1.02-1.78,2.26-3.95,3.51-6.12l-5.44-12.27c-1.34-3.01-4.86-4.37-7.88-3.04C5.32,20.87,4,23.06,4,25.35	c0,0.8,0.16,1.62,0.51,2.41l6.02,13.57C11.15,42.58,12.45,43.43,13.94,43.43z" clip-rule="evenodd"/><linearGradient id="TT_oSGBtodl9JkyYGlmjYb" x1="32.05" x2="32.05" y1="16.9" y2="54.316" gradientUnits="userSpaceOnUse"><stop offset="0" stop-color="#6dc7ff"/><stop offset="1" stop-color="#e6abff"/></linearGradient><path fill="url(#TT_oSGBtodl9JkyYGlmjYb)" fill-rule="evenodd" d="M53.318,41.586c-0.122,0.194-0.256,0.379-0.411,0.546	c-1.099,1.555-2.692,3.532-3.377,4.088c-1.03,0.83-4.76,5.04-8.64-1.27c-1.22-1.97-3.49-6.07-6.11-10.41	c2.766-4.747,5.26-7.708,7.24-9.66l0.023-0.013c0.17-0.17,0.341-0.341,0.511-0.499c1.497-1.424,2.142-2.264,2.811-2.934	c0.34-0.346,0.542-0.647,0.613-0.958c0.027-0.04,0.068-0.084,0.074-0.119c0.048-0.303-0.038-0.622-0.274-1.004	c-1.923-3.141-7.036-3.275-12.283-0.341c-0.475,0.414-2.423,2.203-2.557,4.444c-0.17,2.715,1.85,4.955,5.977,1.169	c0,0,0.039-0.013,0.066-0.023c-0.018,0.02-0.036,0.039-0.054,0.059c0.004,0.028,0.004,0.028,0,0c-4.88,5.48-9.92,14.17-13.96,20.62	c-4.15,6.62-8.61,1.18-9.43,0.26c-1.76-2.01-2.59-3.4-2.89-3.94l4.08,9.16c0.82,1.88,2.49,3.1,4.35,3.46c0,0,0,0,0-0.01	c2.46,0.47,5.06-0.65,6.33-2.96c0,0,3.938-6.96,6.656-11.844l0,0L38.6,51.17c1.51,2.71,4.79,3.78,7.57,2.59	c1.41-0.49,2.69-1.99,3.17-3.07l4.11-9.32C53.412,41.445,53.365,41.515,53.318,41.586z" clip-rule="evenodd"/><linearGradient id="TT_oSGBtodl9JkyYGlmjYc" x1="51.62" x2="51.62" y1="19.374" y2="43.35" gradientUnits="userSpaceOnUse"><stop offset="0" stop-color="#6dc7ff"/><stop offset="1" stop-color="#e6abff"/></linearGradient><path fill="url(#TT_oSGBtodl9JkyYGlmjYc)" fill-rule="evenodd" d="M56.45,19.89c-3.02-1.34-6.54,0.02-7.88,3.04	l-5.33,12.04l3.77,6.77c0.69,0.97,1.82,1.61,3.11,1.61c1.098,0,2.094-0.469,2.787-1.218c0.007-0.01,0.016-0.022,0.023-0.032	c0.03-0.03,0.07-0.08,0.09-0.13c0.112-0.118,0.209-0.249,0.298-0.384c0.063-0.1,0.128-0.199,0.182-0.306l0.01-0.02l5.98-13.5	c0.35-0.78,0.51-1.6,0.51-2.41C60,23.06,58.68,20.87,56.45,19.89z" clip-rule="evenodd"/><linearGradient id="TT_oSGBtodl9JkyYGlmjYd" x1="42.323" x2="61.002" y1="30.444" y2="30.444" gradientUnits="userSpaceOnUse"><stop offset="0" stop-color="#1a6dff"/><stop offset="1" stop-color="#c822ff"/></linearGradient><path fill="url(#TT_oSGBtodl9JkyYGlmjYd)" d="M54.04,42.518l-1.828-0.811l6.361-14.352c0.537-1.213,0.57-2.563,0.092-3.802	c-0.478-1.238-1.409-2.216-2.623-2.754c-1.213-0.537-2.562-0.57-3.801-0.092s-2.216,1.41-2.754,2.624l-5.336,12.037l-1.828-0.811	l5.336-12.037c0.754-1.702,2.125-3.009,3.861-3.679c1.735-0.671,3.63-0.626,5.332,0.129c1.702,0.754,3.009,2.125,3.679,3.862	c0.67,1.736,0.624,3.63-0.13,5.332L54.04,42.518z"/><linearGradient id="TT_oSGBtodl9JkyYGlmjYe" x1="44.46" x2="44.46" y1="3.983" y2="9.315" gradientUnits="userSpaceOnUse"><stop offset="0" stop-color="#6dc7ff"/><stop offset="1" stop-color="#e6abff"/></linearGradient><path fill="url(#TT_oSGBtodl9JkyYGlmjYe)" fill-rule="evenodd" d="M44.46,3.983c1.473,0,2.666,1.194,2.666,2.666	s-1.194,2.666-2.666,2.666c-1.473,0-2.666-1.194-2.666-2.666S42.988,3.983,44.46,3.983z" clip-rule="evenodd"/><linearGradient id="TT_oSGBtodl9JkyYGlmjYf" x1="32.192" x2="32.192" y1="5.59" y2="18.699" gradientUnits="userSpaceOnUse"><stop offset="0" stop-color="#6dc7ff"/><stop offset="1" stop-color="#e6abff"/></linearGradient><path fill="url(#TT_oSGBtodl9JkyYGlmjYf)" fill-rule="evenodd" d="M27.019,18.678c-0.72-0.263-2.479-6.816,2.251-11.021	c6.808-6.051,13.991,2.74,4.306,6.519C27.133,16.688,27.74,18.941,27.019,18.678z" clip-rule="evenodd"/><linearGradient id="TT_oSGBtodl9JkyYGlmjYg" x1="21.34" x2="21.34" y1="15.168" y2="23.659" gradientUnits="userSpaceOnUse"><stop offset="0" stop-color="#6dc7ff"/><stop offset="1" stop-color="#e6abff"/></linearGradient><path fill="url(#TT_oSGBtodl9JkyYGlmjYg)" fill-rule="evenodd" d="M22.208,23.642c0.647,0.235-0.356-1.902,1.251-4.969	c1.712-3.267-2.906-5.174-4.345-1.512C18.263,19.325,19.48,22.649,22.208,23.642z" clip-rule="evenodd"/><linearGradient id="TT_oSGBtodl9JkyYGlmjYh" x1="52.217" x2="54.413" y1="41.695" y2="41.695" gradientUnits="userSpaceOnUse"><stop offset="0" stop-color="#1a6dff"/><stop offset="1" stop-color="#c822ff"/></linearGradient><polygon fill="url(#TT_oSGBtodl9JkyYGlmjYh)" points="54.043,42.518 52.217,41.703 52.587,40.873 54.413,41.688"/><linearGradient id="TT_oSGBtodl9JkyYGlmjYi" x1="31.999" x2="31.999" y1="16.018" y2="55.317" gradientUnits="userSpaceOnUse"><stop offset="0" stop-color="#1a6dff"/><stop offset="1" stop-color="#c822ff"/></linearGradient><path fill="url(#TT_oSGBtodl9JkyYGlmjYi)" d="M56.855,18.976c-3.513-1.559-7.639,0.033-9.199,3.549l-4.518,10.206l-2.703-4.852	c1.715-2.149,3.107-3.48,4.075-4.404c1.573-1.502,2.71-2.587,1.544-4.496c-1.169-1.912-3.321-2.961-6.068-2.961	c-0.035,0-0.071,0-0.106,0.001c-4.513,0.044-10.849,3.138-14.832,9.949c-0.824,1.407-2.169,3.732-4.063,7.023l-4.643-10.473	c-1.555-3.514-5.678-5.106-9.193-3.55c-1.702,0.754-3.009,2.125-3.679,3.862c-0.67,1.736-0.624,3.63,0.13,5.332l6.018,13.577	c0,0,0,0,0,0l0.036,0.08l0.308,0.695l0.001,0l3.845,8.656c0.931,2.102,2.837,3.608,5.099,4.029c0.033,0.006,0.066,0.011,0.099,0.013	c0.403,0.071,0.807,0.105,1.206,0.105c2.493,0,4.833-1.339,6.078-3.575c0.043-0.077,3.177-5.628,5.766-10.271l5.676,10.188	c1.275,2.287,3.643,3.595,6.079,3.595c0.904,0,1.818-0.181,2.689-0.558c1.681-0.572,3.16-2.25,3.749-3.605l4.17-9.414	c0.002-0.004,0.005-0.008,0.007-0.012l5.979-13.496C60.799,27.285,61,26.337,61,25.35C61,22.585,59.372,20.082,56.855,18.976z M39.898,18.018c2.044,0.002,3.646,0.692,4.448,2.004c0.308,0.503,0.325,0.533-1.219,2.007c-0.424,0.405-0.93,0.891-1.502,1.476	l-0.001-0.001c-0.114,0.106-0.312,0.295-0.463,0.441c-2.164,1.276-2.897,1.044-3.026,0.981c-0.032-0.015-0.114-0.055-0.172-0.218	c0.015-0.223-0.048-0.453-0.181-0.652c-0.249-0.372-0.746-0.522-1.175-0.385c-0.136,0.045-0.261,0.117-0.366,0.214	c-1.507,1.383-2.836,2.006-3.565,1.656c-0.502-0.24-0.799-1.054-0.738-2.027c0.107-1.779,1.724-3.32,2.216-3.75l-0.064-0.074	C36.137,18.576,38.174,18.035,39.898,18.018z M11.427,40.89l-6-13.538c-0.537-1.213-0.57-2.563-0.092-3.802	c0.478-1.238,1.409-2.216,2.622-2.754c2.507-1.107,5.447,0.027,6.556,2.532l5.236,11.81c-0.951,1.654-2.01,3.498-3.189,5.553	c-0.047,0.058-0.087,0.12-0.12,0.187c-0.475,0.959-1.434,1.555-2.503,1.555C12.862,42.433,11.901,41.842,11.427,40.89z M24.542,50.765c-1.044,1.875-3.163,2.865-5.27,2.464c-0.03-0.006-0.06-0.01-0.091-0.013c-1.574-0.322-2.896-1.385-3.548-2.857	l-2.676-6.024c0.317,0.065,0.645,0.099,0.979,0.099c1.781,0,3.385-0.963,4.22-2.52c0.024-0.032,0.046-0.066,0.066-0.102	c4.388-7.648,7.185-12.501,8.551-14.834c0.966-1.652,2.079-3.053,3.264-4.231c-0.04,0.213-0.082,0.424-0.096,0.646	c-0.114,1.832,0.603,3.348,1.873,3.954c0.351,0.167,0.784,0.289,1.307,0.288c0.889,0,2.032-0.351,3.451-1.42	c0.194,0.213,0.429,0.387,0.699,0.516c0.388,0.186,0.835,0.26,1.331,0.24c-1.674,2.138-3.623,5.006-5.771,8.958	C30.579,40.071,24.605,50.653,24.542,50.765z M48.416,50.287c-0.405,0.932-1.532,2.165-2.637,2.545	c-2.346,1.009-5.057,0.09-6.303-2.146l-6.28-11.271c0.537-0.969,1.017-1.84,1.393-2.53c1.643-3.022,3.162-5.388,4.524-7.266	l3.253,5.838c0,0,0,0,0,0l3.77,6.771c0.019,0.032,0.038,0.063,0.06,0.094c0.084,0.118,0.177,0.226,0.27,0.335	c0.906,1.068,2.238,1.698,3.651,1.698c0.042,0,0.082-0.011,0.124-0.012c0.232-0.006,0.46-0.03,0.685-0.069	c0.053-0.009,0.109-0.006,0.162-0.016L48.416,50.287z M58.576,27.354L52.62,40.801c-0.001,0.003-0.004,0.004-0.005,0.006	c-0.111,0.222-0.253,0.42-0.411,0.6c-0.012,0.014-0.019,0.032-0.032,0.046c-0.036,0.039-0.083,0.063-0.12,0.1	c-0.513,0.492-1.2,0.797-1.931,0.797c-0.773,0-1.498-0.337-2.027-0.893c-0.079-0.084-0.167-0.159-0.236-0.254l-3.501-6.284	l5.128-11.584c1.112-2.508,4.053-3.642,6.563-2.53C57.841,21.594,59,23.378,59,25.35C59,26.053,58.858,26.726,58.576,27.354z"/></svg>